<svg xmlns="http://www.w3.org/2000/svg" xmlns:xlink="http://www.w3.org/1999/xlink" viewBox="-578.3771204638721 -986.001461913064 1670.0277270485117 4054.5033806545234" width="100%">
<defs>
  <filter id="shadow"><feDropShadow dx="0" dy="1" stdDeviation="2" flood-opacity="0.1"/></filter>
  <marker id="arrow-94a3b8" markerWidth="10" markerHeight="7" refX="10" refY="3.5" orient="auto"><polygon points="0 0, 10 3.5, 0 7" fill="#94a3b8"/></marker>
<marker id="arrow-4a9fb5" markerWidth="10" markerHeight="7" refX="10" refY="3.5" orient="auto"><polygon points="0 0, 10 3.5, 0 7" fill="#4a9fb5"/></marker>
</defs>
<style>
  .edge path { transition: stroke-width 0.15s; }
  .edge:hover path { stroke-width: 3; }
</style>
<rect x="-578.3771204638721" y="-986.001461913064" width="1670.0277270485117" height="4054.5033806545234" fill="#f8fafc"/>
<g class="edge"><path d="M323.6559749255252,-840.001461913064 C323.6559749255252,-782.4625222861326 318.46967296655555,-753.693052472667 318.46967296655555,-696.1541128457357" fill="none" stroke="#94a3b8" stroke-width="2" marker-end="url(#arrow-94a3b8)"/><rect x="263.0628239460404" y="-778.0777873793998" width="116" height="18" rx="4" fill="white" stroke="#e5e7eb" stroke-width="1"/><text x="321.0628239460404" y="-765.0777873793998" text-anchor="middle" fill="#374151" font-family="sans-serif" font-size="10">To insurance type</text></g>
<g class="edge"><path d="M318.46967296655555,-595.1541128457357 C318.46967296655555,-508.7186583093418 319.00298157800137,-465.5009310411449 319.00298157800137,-379.065476504751" fill="none" stroke="#94a3b8" stroke-width="2" marker-end="url(#arrow-94a3b8)"/><rect x="263.73632727227846" y="-497.1097946752434" width="110" height="18" rx="4" fill="white" stroke="#e5e7eb" stroke-width="1"/><text x="318.73632727227846" y="-484.1097946752434" text-anchor="middle" fill="#374151" font-family="sans-serif" font-size="10">To license plate</text></g>
<g class="edge"><path d="M319.00298157800137,-278.065476504751 C319.00298157800137,-218.40836831670492 -215.36429896181937,-188.57981422268188 -215.36429896181937,-128.92270603463578" fill="none" stroke="#94a3b8" stroke-width="2" marker-end="url(#arrow-94a3b8)"/><rect x="-0.1806586919090023" y="-213.4940912696934" width="104" height="18" rx="4" fill="white" stroke="#e5e7eb" stroke-width="1"/><text x="51.819341308091" y="-200.4940912696934" text-anchor="middle" fill="#374151" font-family="sans-serif" font-size="10">Look up vehicle</text></g>
<g class="edge"><path d="M-309.84742595345506,291.7601033908667 C-309.84742595345506,402.6788073149416 -358.3771204638721,458.138159276979 -358.3771204638721,569.056863201054" fill="none" stroke="#4a9fb5" stroke-width="2" marker-end="url(#arrow-4a9fb5)"/><rect x="-368.11227320866357" y="420.40848329596037" width="68" height="18" rx="4" fill="white" stroke="#e5e7eb" stroke-width="1"/><text x="-334.11227320866357" y="433.40848329596037" text-anchor="middle" fill="#374151" font-family="sans-serif" font-size="10">Confirmed</text></g>
<g class="edge"><path d="M-358.3771204638721,670.056863201054 C-358.3771204638721,735.075483929579 -241.57228223449653,767.5847942938416 -241.57228223449653,832.6034150223667" fill="none" stroke="#94a3b8" stroke-width="2" marker-end="url(#arrow-94a3b8)"/><rect x="-330.9747013491843" y="741.3301391117103" width="62" height="18" rx="4" fill="white" stroke="#e5e7eb" stroke-width="1"/><text x="-299.9747013491843" y="754.3301391117103" text-anchor="middle" fill="#374151" font-family="sans-serif" font-size="10">To phone</text></g>
<g class="edge"><path d="M-241.57228223449653,933.6034150223667 C-241.57228223449653,994.1620311297403 -150.92855583836683,1024.441339183427 -150.92855583836683,1084.9999552908007" fill="none" stroke="#94a3b8" stroke-width="2" marker-end="url(#arrow-94a3b8)"/><rect x="-227.25041903643165" y="999.3016851565837" width="62" height="18" rx="4" fill="white" stroke="#e5e7eb" stroke-width="1"/><text x="-196.25041903643165" y="1012.3016851565837" text-anchor="middle" fill="#374151" font-family="sans-serif" font-size="10">To email</text></g>
<g class="edge"><path d="M531.6506065846397,1773.5290148917927 C531.6506065846397,1853.8480562733523 -140.28989408079178,1894.007576964132 -140.28989408079178,1974.3266183456917" fill="none" stroke="#94a3b8" stroke-width="2" marker-end="url(#arrow-94a3b8)"/><rect x="158.68035625192397" y="1863.9278166187423" width="74" height="18" rx="4" fill="white" stroke="#e5e7eb" stroke-width="1"/><text x="195.68035625192397" y="1876.9278166187423" text-anchor="middle" fill="#374151" font-family="sans-serif" font-size="10">To summary</text></g>
<g class="edge"><path d="M-150.92855583836683,1185.9999552908007 C-150.92855583836683,1273.8672875763973 -74.94072705482529,1317.8009537191956 -74.94072705482529,1405.6682860047922" fill="none" stroke="#94a3b8" stroke-width="2" marker-end="url(#arrow-94a3b8)"/><rect x="-158.93464144659606" y="1285.8341206477962" width="92" height="18" rx="4" fill="white" stroke="#e5e7eb" stroke-width="1"/><text x="-112.93464144659606" y="1298.8341206477962" text-anchor="middle" fill="#374151" font-family="sans-serif" font-size="10">Route by type</text></g>
<g class="edge"><path d="M-74.94072705482529,1471.6682860047922 C-74.94072705482529,1672.731618941152 -140.28989408079178,1773.263285409332 -140.28989408079178,1974.3266183456917" fill="none" stroke="#94a3b8" stroke-width="2" marker-end="url(#arrow-94a3b8)"/><rect x="-141.61531056780854" y="1712.997452175242" width="68" height="18" rx="4" fill="white" stroke="#e5e7eb" stroke-width="1"/><text x="-107.61531056780854" y="1725.997452175242" text-anchor="middle" fill="#374151" font-family="sans-serif" font-size="10">Mandatory</text></g>
<g class="edge"><path d="M-74.94072705482529,1471.6682860047922 C-74.94072705482529,1536.8125775595925 531.6506065846397,1569.3847233369925 531.6506065846397,1634.5290148917927" fill="none" stroke="#4a9fb5" stroke-width="2" marker-end="url(#arrow-4a9fb5)"/><rect x="182.35493976490721" y="1543.0986504482923" width="92" height="18" rx="4" fill="white" stroke="#e5e7eb" stroke-width="1"/><text x="228.35493976490721" y="1556.0986504482923" text-anchor="middle" fill="#374151" font-family="sans-serif" font-size="10">Comprehensive</text></g>
<g class="edge"><path d="M-215.36429896181937,-62.92270603463578 C-215.36429896181937,32.950417735565225 -309.84742595345506,80.8869796206657 -309.84742595345506,176.7601033908667" fill="none" stroke="#4a9fb5" stroke-width="2" marker-end="url(#arrow-4a9fb5)"/><rect x="-308.6058624576372" y="46.91869867811546" width="92" height="18" rx="4" fill="white" stroke="#e5e7eb" stroke-width="1"/><text x="-262.6058624576372" y="59.91869867811546" text-anchor="middle" fill="#374151" font-family="sans-serif" font-size="10">Vehicle found</text></g>
<g class="edge"><path d="M-215.36429896181937,-62.92270603463578 C-215.36429896181937,36.7821789188619 375.8670368079749,86.63462139561072 375.8670368079749,186.3395063491084" fill="none" stroke="#94a3b8" stroke-width="2" marker-end="url(#arrow-94a3b8)"/><rect x="22.251368923077763" y="51.70840015723631" width="116" height="18" rx="4" fill="white" stroke="#e5e7eb" stroke-width="1"/><text x="80.25136892307776" y="64.70840015723631" text-anchor="middle" fill="#374151" font-family="sans-serif" font-size="10">Vehicle not found</text></g>
<g class="edge"><path d="M375.8670368079749,287.33950634910843 C375.8670368079749,350.5834397318979 378.1815745368254,382.20540642329263 378.1815745368254,445.4493398060821" fill="none" stroke="#94a3b8" stroke-width="2" marker-end="url(#arrow-94a3b8)"/><rect x="322.02430567240015" y="356.3944230775953" width="110" height="18" rx="4" fill="white" stroke="#e5e7eb" stroke-width="1"/><text x="377.02430567240015" y="369.3944230775953" text-anchor="middle" fill="#374151" font-family="sans-serif" font-size="10">Reset plate exit</text></g>
<g class="edge"><path d="M378.1815745368254,546.4493398060821 C378.1815745368254,916.6552663304153 319.00298157800137,-749.2714030290842 319.00298157800137,-379.065476504751" fill="none" stroke="#94a3b8" stroke-width="2" marker-end="url(#arrow-94a3b8)"/><rect x="293.59227805741335" y="73.69193165066555" width="110" height="18" rx="4" fill="white" stroke="#e5e7eb" stroke-width="1"/><text x="348.59227805741335" y="86.69193165066555" text-anchor="middle" fill="#374151" font-family="sans-serif" font-size="10">Reset plate exit</text></g>
<g class="edge"><path d="M336.92214529442066,2766.355577462489 C336.92214529442066,4024.5239990493847 319.00298157800137,-1637.233898091647 319.00298157800137,-379.065476504751" fill="none" stroke="#94a3b8" stroke-width="2" marker-end="url(#arrow-94a3b8)"/><rect x="266.962563436211" y="1183.6450504788688" width="122" height="18" rx="4" fill="white" stroke="#e5e7eb" stroke-width="1"/><text x="327.962563436211" y="1196.6450504788688" text-anchor="middle" fill="#374151" font-family="sans-serif" font-size="10">Reset confirmation</text></g>
<g class="edge"><path d="M-309.84742595345506,291.7601033908667 C-309.84742595345506,368.7707469349108 -13.487202086611632,407.27606870693285 -13.487202086611632,484.28671225097696" fill="none" stroke="#94a3b8" stroke-width="2" marker-end="url(#arrow-94a3b8)"/><rect x="-246.66731402003336" y="378.0234078209219" width="170" height="18" rx="4" fill="white" stroke="#e5e7eb" stroke-width="1"/><text x="-161.66731402003336" y="391.0234078209219" text-anchor="middle" fill="#374151" font-family="sans-serif" font-size="10">Reset vehicle confirmation</text></g>
<g class="edge"><path d="M-13.487202086611632,609.286712250977 C-13.487202086611632,1004.6275877532682 319.00298157800137,-774.4063520070422 319.00298157800137,-379.065476504751" fill="none" stroke="#94a3b8" stroke-width="2" marker-end="url(#arrow-94a3b8)"/><rect x="112.75788974569485" y="105.11061787311304" width="80" height="18" rx="4" fill="white" stroke="#e5e7eb" stroke-width="1"/><text x="152.75788974569485" y="118.11061787311304" text-anchor="middle" fill="#374151" font-family="sans-serif" font-size="10">Reset plate</text></g>
<g class="edge"><path d="M-0.9150782661537278,2415.293847156739 C-0.9150782661537278,2496.118539279039 336.92214529442066,2536.530885340189 336.92214529442066,2617.355577462489" fill="none" stroke="#94a3b8" stroke-width="2" marker-end="url(#arrow-94a3b8)"/><rect x="92.00353351413347" y="2506.324712309614" width="152" height="18" rx="4" fill="white" stroke="#e5e7eb" stroke-width="1"/><text x="168.00353351413347" y="2519.324712309614" text-anchor="middle" fill="#374151" font-family="sans-serif" font-size="10">Reset edit confirmation</text></g>
<g class="edge"><path d="M-140.28989408079178,2089.3266183456917 C-140.28989408079178,2179.3135098701105 -0.9150782661537278,2224.3069556323203 -0.9150782661537278,2314.293847156739" fill="none" stroke="#94a3b8" stroke-width="2" marker-end="url(#arrow-94a3b8)"/><rect x="-122.60248617347276" y="2191.810232751215" width="104" height="18" rx="4" fill="white" stroke="#e5e7eb" stroke-width="1"/><text x="-70.60248617347276" y="2204.810232751215" text-anchor="middle" fill="#374151" font-family="sans-serif" font-size="10">To confirmation</text></g>
<g class="edge terminal-edge"><path d="M-0.9150782661537278,2415.293847156739 C-0.9150782661537278,2612.577075790627 6.810383143545522,2711.2186901075715 6.810383143545522,2908.5019187414596" fill="none" stroke="#4a9fb5" stroke-width="2" marker-end="url(#arrow-4a9fb5)"/><rect x="-28.052347561304103" y="2651.8978829490993" width="62" height="18" rx="4" fill="white" stroke="#e5e7eb" stroke-width="1"/><text x="2.947652438695897" y="2664.8978829490993" text-anchor="middle" fill="#374151" font-family="sans-serif" font-size="10">Approved</text></g>
<g transform="translate(183.6559749255252,-906.001461913064)" class="node">
<rect width="280" height="66" rx="8" fill="white" stroke="#e5e7eb" stroke-width="1" filter="url(#shadow)"/>
<rect x="1" y="8" width="3" height="50" rx="1" fill="#22c55e"/>
<rect x="12" y="12" width="42" height="18" rx="3" fill="#dcfce7"/><text x="33" y="25" text-anchor="middle" fill="#166534" font-family="sans-serif" font-size="10" font-weight="600">Start</text>
<text x="60" y="25" fill="#111827" font-family="sans-serif" font-size="12" font-weight="600">Start</text>
<g transform="translate(12,38)"><polygon points="3,1 12,7 3,13" fill="#16a34a"/></g>
<text x="32" y="49" fill="#6b7280" font-family="sans-serif" font-size="11">ברוכים הבאים</text>
</g>
<g transform="translate(178.46967296655555,-696.1541128457357)" class="node">
<rect width="280" height="101" rx="8" fill="white" stroke="#e5e7eb" stroke-width="1" filter="url(#shadow)"/>
<rect x="1" y="8" width="3" height="85" rx="1" fill="#06b6d4"/>
<rect x="12" y="12" width="54" height="18" rx="3" fill="#cffafe"/><text x="39" y="25" text-anchor="middle" fill="#155e75" font-family="sans-serif" font-size="10" font-weight="600">Collect</text>
<text x="72" y="25" fill="#111827" font-family="sans-serif" font-size="12" font-weight="600">Insurance Type</text>
<g transform="translate(12,38)"><rect x="2" y="3" width="10" height="10" rx="1" fill="none" stroke="#0891b2" stroke-width="1.5"/><path d="M5 1h4v2H5z" fill="none" stroke="#0891b2" stroke-width="1.5" stroke-linejoin="round"/><line x1="5" y1="7" x2="9" y2="7" stroke="#0891b2" stroke-width="1.2"/><line x1="5" y1="10" x2="9" y2="10" stroke="#0891b2" stroke-width="1.2"/></g>
<text x="32" y="49" fill="#6b7280" font-family="sans-serif" font-size="11">איזה סוג הביטוח תרצה: מקיף או חובה?</text>
<line x1="12" y1="62" x2="268" y2="62" stroke="#e5e7eb" stroke-width="1"/>
<rect x="12" y="71" width="60" height="20" rx="4" fill="#ffffff" stroke="#d4d4d8" stroke-width="1"/><text x="42" y="85" text-anchor="middle" fill="#374151" font-family="sans-serif" font-size="10" font-weight="500">1 fields</text>
<rect x="76" y="71" width="96" height="20" rx="4" fill="#18181b"/><text x="124" y="85" text-anchor="middle" fill="#fafafa" font-family="sans-serif" font-size="10" font-weight="500">insurance_type</text>
</g>
<g transform="translate(179.00298157800137,-379.065476504751)" class="node">
<rect width="280" height="101" rx="8" fill="white" stroke="#e5e7eb" stroke-width="1" filter="url(#shadow)"/>
<rect x="1" y="8" width="3" height="85" rx="1" fill="#06b6d4"/>
<rect x="12" y="12" width="54" height="18" rx="3" fill="#cffafe"/><text x="39" y="25" text-anchor="middle" fill="#155e75" font-family="sans-serif" font-size="10" font-weight="600">Collect</text>
<text x="72" y="25" fill="#111827" font-family="sans-serif" font-size="12" font-weight="600">License Plate</text>
<g transform="translate(12,38)"><rect x="2" y="3" width="10" height="10" rx="1" fill="none" stroke="#0891b2" stroke-width="1.5"/><path d="M5 1h4v2H5z" fill="none" stroke="#0891b2" stroke-width="1.5" stroke-linejoin="round"/><line x1="5" y1="7" x2="9" y2="7" stroke="#0891b2" stroke-width="1.2"/><line x1="5" y1="10" x2="9" y2="10" stroke="#0891b2" stroke-width="1.2"/></g>
<text x="32" y="49" fill="#6b7280" font-family="sans-serif" font-size="11">מה מספר הרישוי?</text>
<line x1="12" y1="62" x2="268" y2="62" stroke="#e5e7eb" stroke-width="1"/>
<rect x="12" y="71" width="60" height="20" rx="4" fill="#ffffff" stroke="#d4d4d8" stroke-width="1"/><text x="42" y="85" text-anchor="middle" fill="#374151" font-family="sans-serif" font-size="10" font-weight="500">1 fields</text>
<rect x="76" y="71" width="90" height="20" rx="4" fill="#18181b"/><text x="121" y="85" text-anchor="middle" fill="#fafafa" font-family="sans-serif" font-size="10" font-weight="500">license_plate</text>
</g>
<g transform="translate(-355.3642989618194,-128.92270603463578)" class="node">
<rect width="280" height="66" rx="8" fill="white" stroke="#e5e7eb" stroke-width="1" filter="url(#shadow)"/>
<rect x="1" y="8" width="3" height="50" rx="1" fill="#a855f7"/>
<rect x="12" y="12" width="60" height="18" rx="3" fill="#f3e8ff"/><text x="42" y="25" text-anchor="middle" fill="#6b21a8" font-family="sans-serif" font-size="10" font-weight="600">API Call</text>
<text x="78" y="25" fill="#111827" font-family="sans-serif" font-size="12" font-weight="600">API 1 - Get Vehicle</text>
<g transform="translate(12,38)"><polygon points="8,1 2,8 6.5,8 5.5,13 12,6 7.5,6" fill="#9333ea"/></g>
<text x="32" y="49" fill="#6b7280" font-family="sans-serif" font-size="11">New API Tool</text>
</g>
<g transform="translate(-449.84742595345506,176.7601033908667)" class="node">
<rect width="280" height="115" rx="8" fill="white" stroke="#e5e7eb" stroke-width="1" filter="url(#shadow)"/>
<rect x="1" y="8" width="3" height="99" rx="1" fill="#06b6d4"/>
<rect x="12" y="12" width="54" height="18" rx="3" fill="#cffafe"/><text x="39" y="25" text-anchor="middle" fill="#155e75" font-family="sans-serif" font-size="10" font-weight="600">Collect</text>
<text x="72" y="25" fill="#111827" font-family="sans-serif" font-size="12" font-weight="600">Vehicle Confirmation</text>
<g transform="translate(12,38)"><rect x="2" y="3" width="10" height="10" rx="1" fill="none" stroke="#0891b2" stroke-width="1.5"/><path d="M5 1h4v2H5z" fill="none" stroke="#0891b2" stroke-width="1.5" stroke-linejoin="round"/><line x1="5" y1="7" x2="9" y2="7" stroke="#0891b2" stroke-width="1.2"/><line x1="5" y1="10" x2="9" y2="10" stroke="#0891b2" stroke-width="1.2"/></g>
<text x="32" y="49" fill="#6b7280" font-family="sans-serif" font-size="11">מצאנו את הרכב הבא:</text>
<text x="32" y="63" fill="#6b7280" font-family="sans-serif" font-size="11">{{vehicle_manufacturer}} {{vehicle_mo…</text>
<line x1="12" y1="76" x2="268" y2="76" stroke="#e5e7eb" stroke-width="1"/>
<rect x="12" y="85" width="60" height="20" rx="4" fill="#ffffff" stroke="#d4d4d8" stroke-width="1"/><text x="42" y="99" text-anchor="middle" fill="#374151" font-family="sans-serif" font-size="10" font-weight="500">1 fields</text>
<rect x="76" y="85" width="114" height="20" rx="4" fill="#18181b"/><text x="133" y="99" text-anchor="middle" fill="#fafafa" font-family="sans-serif" font-size="10" font-weight="500">vehicle_confirmed</text>
</g>
<g transform="translate(235.8670368079749,186.3395063491084)" class="node">
<rect width="280" height="101" rx="8" fill="white" stroke="#e5e7eb" stroke-width="1" filter="url(#shadow)"/>
<rect x="1" y="8" width="3" height="85" rx="1" fill="#3b82f6"/>
<rect x="12" y="12" width="84" height="18" rx="3" fill="#dbeafe"/><text x="54" y="25" text-anchor="middle" fill="#1e40af" font-family="sans-serif" font-size="10" font-weight="600">Conversation</text>
<text x="102" y="25" fill="#111827" font-family="sans-serif" font-size="12" font-weight="600">Not Found</text>
<g transform="translate(12,38)"><path d="M1 3h10a1 1 0 0 1 1 1v5a1 1 0 0 1-1 1H7l-2.5 2.5V10H2a1 1 0 0 1-1-1V4a1 1 0 0 1 1-1z" fill="none" stroke="#2563eb" stroke-width="1.5" stroke-linejoin="round"/></g>
<text x="32" y="49" fill="#6b7280" font-family="sans-serif" font-size="11">מספר הרכב לא נמצא, נסו שוב</text>
<line x1="12" y1="62" x2="268" y2="62" stroke="#e5e7eb" stroke-width="1"/>
<rect x="12" y="71" width="60" height="20" rx="4" fill="#ffffff" stroke="#d4d4d8" stroke-width="1"/><text x="42" y="85" text-anchor="middle" fill="#374151" font-family="sans-serif" font-size="10" font-weight="500">KB: auto</text>
</g>
<g transform="translate(-498.3771204638721,569.056863201054)" class="node">
<rect width="280" height="101" rx="8" fill="white" stroke="#e5e7eb" stroke-width="1" filter="url(#shadow)"/>
<rect x="1" y="8" width="3" height="85" rx="1" fill="#06b6d4"/>
<rect x="12" y="12" width="54" height="18" rx="3" fill="#cffafe"/><text x="39" y="25" text-anchor="middle" fill="#155e75" font-family="sans-serif" font-size="10" font-weight="600">Collect</text>
<text x="72" y="25" fill="#111827" font-family="sans-serif" font-size="12" font-weight="600">Full Name</text>
<g transform="translate(12,38)"><rect x="2" y="3" width="10" height="10" rx="1" fill="none" stroke="#0891b2" stroke-width="1.5"/><path d="M5 1h4v2H5z" fill="none" stroke="#0891b2" stroke-width="1.5" stroke-linejoin="round"/><line x1="5" y1="7" x2="9" y2="7" stroke="#0891b2" stroke-width="1.2"/><line x1="5" y1="10" x2="9" y2="10" stroke="#0891b2" stroke-width="1.2"/></g>
<text x="32" y="49" fill="#6b7280" font-family="sans-serif" font-size="11">מה השם המלא שלך?</text>
<line x1="12" y1="62" x2="268" y2="62" stroke="#e5e7eb" stroke-width="1"/>
<rect x="12" y="71" width="60" height="20" rx="4" fill="#ffffff" stroke="#d4d4d8" stroke-width="1"/><text x="42" y="85" text-anchor="middle" fill="#374151" font-family="sans-serif" font-size="10" font-weight="500">1 fields</text>
<rect x="76" y="71" width="66" height="20" rx="4" fill="#18181b"/><text x="109" y="85" text-anchor="middle" fill="#fafafa" font-family="sans-serif" font-size="10" font-weight="500">full_name</text>
</g>
<g transform="translate(-381.5722822344965,832.6034150223667)" class="node">
<rect width="280" height="101" rx="8" fill="white" stroke="#e5e7eb" stroke-width="1" filter="url(#shadow)"/>
<rect x="1" y="8" width="3" height="85" rx="1" fill="#06b6d4"/>
<rect x="12" y="12" width="54" height="18" rx="3" fill="#cffafe"/><text x="39" y="25" text-anchor="middle" fill="#155e75" font-family="sans-serif" font-size="10" font-weight="600">Collect</text>
<text x="72" y="25" fill="#111827" font-family="sans-serif" font-size="12" font-weight="600">Phone</text>
<g transform="translate(12,38)"><rect x="2" y="3" width="10" height="10" rx="1" fill="none" stroke="#0891b2" stroke-width="1.5"/><path d="M5 1h4v2H5z" fill="none" stroke="#0891b2" stroke-width="1.5" stroke-linejoin="round"/><line x1="5" y1="7" x2="9" y2="7" stroke="#0891b2" stroke-width="1.2"/><line x1="5" y1="10" x2="9" y2="10" stroke="#0891b2" stroke-width="1.2"/></g>
<text x="32" y="49" fill="#6b7280" font-family="sans-serif" font-size="11">?מה מספר הטלפון שלך</text>
<line x1="12" y1="62" x2="268" y2="62" stroke="#e5e7eb" stroke-width="1"/>
<rect x="12" y="71" width="60" height="20" rx="4" fill="#ffffff" stroke="#d4d4d8" stroke-width="1"/><text x="42" y="85" text-anchor="middle" fill="#374151" font-family="sans-serif" font-size="10" font-weight="500">1 fields</text>
<rect x="76" y="71" width="42" height="20" rx="4" fill="#18181b"/><text x="97" y="85" text-anchor="middle" fill="#fafafa" font-family="sans-serif" font-size="10" font-weight="500">phone</text>
</g>
<g transform="translate(-290.92855583836683,1084.9999552908007)" class="node">
<rect width="280" height="101" rx="8" fill="white" stroke="#e5e7eb" stroke-width="1" filter="url(#shadow)"/>
<rect x="1" y="8" width="3" height="85" rx="1" fill="#06b6d4"/>
<rect x="12" y="12" width="54" height="18" rx="3" fill="#cffafe"/><text x="39" y="25" text-anchor="middle" fill="#155e75" font-family="sans-serif" font-size="10" font-weight="600">Collect</text>
<text x="72" y="25" fill="#111827" font-family="sans-serif" font-size="12" font-weight="600">Email</text>
<g transform="translate(12,38)"><rect x="2" y="3" width="10" height="10" rx="1" fill="none" stroke="#0891b2" stroke-width="1.5"/><path d="M5 1h4v2H5z" fill="none" stroke="#0891b2" stroke-width="1.5" stroke-linejoin="round"/><line x1="5" y1="7" x2="9" y2="7" stroke="#0891b2" stroke-width="1.2"/><line x1="5" y1="10" x2="9" y2="10" stroke="#0891b2" stroke-width="1.2"/></g>
<text x="32" y="49" fill="#6b7280" font-family="sans-serif" font-size="11">מה האימייל שלך?</text>
<line x1="12" y1="62" x2="268" y2="62" stroke="#e5e7eb" stroke-width="1"/>
<rect x="12" y="71" width="60" height="20" rx="4" fill="#ffffff" stroke="#d4d4d8" stroke-width="1"/><text x="42" y="85" text-anchor="middle" fill="#374151" font-family="sans-serif" font-size="10" font-weight="500">1 fields</text>
<rect x="76" y="71" width="42" height="20" rx="4" fill="#18181b"/><text x="97" y="85" text-anchor="middle" fill="#fafafa" font-family="sans-serif" font-size="10" font-weight="500">email</text>
</g>
<g transform="translate(391.6506065846397,1634.5290148917927)" class="node">
<rect width="280" height="139" rx="8" fill="white" stroke="#e5e7eb" stroke-width="1" filter="url(#shadow)"/>
<rect x="1" y="8" width="3" height="123" rx="1" fill="#06b6d4"/>
<rect x="12" y="12" width="54" height="18" rx="3" fill="#cffafe"/><text x="39" y="25" text-anchor="middle" fill="#155e75" font-family="sans-serif" font-size="10" font-weight="600">Collect</text>
<text x="72" y="25" fill="#111827" font-family="sans-serif" font-size="12" font-weight="600">Coverages</text>
<g transform="translate(12,38)"><rect x="2" y="3" width="10" height="10" rx="1" fill="none" stroke="#0891b2" stroke-width="1.5"/><path d="M5 1h4v2H5z" fill="none" stroke="#0891b2" stroke-width="1.5" stroke-linejoin="round"/><line x1="5" y1="7" x2="9" y2="7" stroke="#0891b2" stroke-width="1.2"/><line x1="5" y1="10" x2="9" y2="10" stroke="#0891b2" stroke-width="1.2"/></g>
<text x="32" y="49" fill="#6b7280" font-family="sans-serif" font-size="11">אילו כיסויים נוספים תרצה? סמנו לכל אחד</text>
<text x="32" y="63" fill="#6b7280" font-family="sans-serif" font-size="11">כן / לא:</text>
<line x1="12" y1="76" x2="268" y2="76" stroke="#e5e7eb" stroke-width="1"/>
<rect x="12" y="85" width="60" height="20" rx="4" fill="#ffffff" stroke="#d4d4d8" stroke-width="1"/><text x="42" y="99" text-anchor="middle" fill="#374151" font-family="sans-serif" font-size="10" font-weight="500">3 fields</text>
<rect x="76" y="85" width="114" height="20" rx="4" fill="#18181b"/><text x="133" y="99" text-anchor="middle" fill="#fafafa" font-family="sans-serif" font-size="10" font-weight="500">cover_windshields</text>
<rect x="12" y="109" width="114" height="20" rx="4" fill="#18181b"/><text x="69" y="123" text-anchor="middle" fill="#fafafa" font-family="sans-serif" font-size="10" font-weight="500">cover_third_party</text>
<rect x="130" y="109" width="114" height="20" rx="4" fill="#18181b"/><text x="187" y="123" text-anchor="middle" fill="#fafafa" font-family="sans-serif" font-size="10" font-weight="500">cover_replacement</text>
</g>
<g transform="translate(-280.2898940807918,1974.3266183456917)" class="node">
<rect width="280" height="115" rx="8" fill="white" stroke="#e5e7eb" stroke-width="1" filter="url(#shadow)"/>
<rect x="1" y="8" width="3" height="99" rx="1" fill="#3b82f6"/>
<rect x="12" y="12" width="84" height="18" rx="3" fill="#dbeafe"/><text x="54" y="25" text-anchor="middle" fill="#1e40af" font-family="sans-serif" font-size="10" font-weight="600">Conversation</text>
<text x="102" y="25" fill="#111827" font-family="sans-serif" font-size="12" font-weight="600">Summary</text>
<g transform="translate(12,38)"><path d="M1 3h10a1 1 0 0 1 1 1v5a1 1 0 0 1-1 1H7l-2.5 2.5V10H2a1 1 0 0 1-1-1V4a1 1 0 0 1 1-1z" fill="none" stroke="#2563eb" stroke-width="1.5" stroke-linejoin="round"/></g>
<text x="32" y="49" fill="#6b7280" font-family="sans-serif" font-size="11">לסיכום ההצטרפות: סוג ביטוח:</text>
<text x="32" y="63" fill="#6b7280" font-family="sans-serif" font-size="11">{{insurance_type}} רכב: {{vehicle_man…</text>
<line x1="12" y1="76" x2="268" y2="76" stroke="#e5e7eb" stroke-width="1"/>
<rect x="12" y="85" width="60" height="20" rx="4" fill="#ffffff" stroke="#d4d4d8" stroke-width="1"/><text x="42" y="99" text-anchor="middle" fill="#374151" font-family="sans-serif" font-size="10" font-weight="500">KB: auto</text>
</g>
<g transform="translate(-140.91507826615373,2314.293847156739)" class="node">
<rect width="280" height="101" rx="8" fill="white" stroke="#e5e7eb" stroke-width="1" filter="url(#shadow)"/>
<rect x="1" y="8" width="3" height="85" rx="1" fill="#06b6d4"/>
<rect x="12" y="12" width="54" height="18" rx="3" fill="#cffafe"/><text x="39" y="25" text-anchor="middle" fill="#155e75" font-family="sans-serif" font-size="10" font-weight="600">Collect</text>
<text x="72" y="25" fill="#111827" font-family="sans-serif" font-size="12" font-weight="600">Final Confirmation</text>
<g transform="translate(12,38)"><rect x="2" y="3" width="10" height="10" rx="1" fill="none" stroke="#0891b2" stroke-width="1.5"/><path d="M5 1h4v2H5z" fill="none" stroke="#0891b2" stroke-width="1.5" stroke-linejoin="round"/><line x1="5" y1="7" x2="9" y2="7" stroke="#0891b2" stroke-width="1.2"/><line x1="5" y1="10" x2="9" y2="10" stroke="#0891b2" stroke-width="1.2"/></g>
<text x="32" y="49" fill="#6b7280" font-family="sans-serif" font-size="11">לאשר את הפרטים ולהשלים את ההרשמה?</text>
<line x1="12" y1="62" x2="268" y2="62" stroke="#e5e7eb" stroke-width="1"/>
<rect x="12" y="71" width="60" height="20" rx="4" fill="#ffffff" stroke="#d4d4d8" stroke-width="1"/><text x="42" y="85" text-anchor="middle" fill="#374151" font-family="sans-serif" font-size="10" font-weight="500">1 fields</text>
<rect x="76" y="71" width="102" height="20" rx="4" fill="#18181b"/><text x="127" y="85" text-anchor="middle" fill="#fafafa" font-family="sans-serif" font-size="10" font-weight="500">final_confirmed</text>
</g>
<g transform="translate(-133.18961685645448,2908.5019187414596)" class="node terminal-node">
<rect width="280" height="80" rx="8" fill="white" stroke="#e5e7eb" stroke-width="1" filter="url(#shadow)"/>
<rect x="1" y="8" width="3" height="64" rx="1" fill="#ef4444"/>
<rect x="12" y="12" width="30" height="18" rx="3" fill="#fee2e2"/><text x="27" y="25" text-anchor="middle" fill="#991b1b" font-family="sans-serif" font-size="10" font-weight="600">End</text>
<text x="48" y="25" fill="#111827" font-family="sans-serif" font-size="12" font-weight="600">End</text>
<g transform="translate(12,38)"><circle cx="7" cy="7" r="5.5" fill="none" stroke="#dc2626" stroke-width="1.5"/><rect x="5" y="5" width="4" height="4" rx="0.5" fill="#dc2626"/></g>
<text x="32" y="49" fill="#6b7280" font-family="sans-serif" font-size="11">ההרשמה הושלמה בהצלחה! ניצור איתך קשר</text>
<text x="32" y="63" fill="#6b7280" font-family="sans-serif" font-size="11">בהקדם</text>
</g>
<g transform="translate(-214.9407270548253,1405.6682860047922)" class="node">
<rect width="280" height="66" rx="8" fill="white" stroke="#e5e7eb" stroke-width="1" filter="url(#shadow)"/>
<rect x="1" y="8" width="3" height="50" rx="1" fill="#6b7280"/>
<rect x="12" y="12" width="90" height="18" rx="3" fill="#f3f4f6"/><text x="57" y="25" text-anchor="middle" fill="#1f2937" font-family="sans-serif" font-size="10" font-weight="600">Set Variables</text>
<text x="108" y="25" fill="#111827" font-family="sans-serif" font-size="12" font-weight="600">Route by type</text>
<g transform="translate(12,38)"><path d="M3 4l4 3-4 3M11 4l-4 3 4 3" fill="none" stroke="#4b5563" stroke-width="1.5" stroke-linecap="round" stroke-linejoin="round"/></g>
</g>
<g transform="translate(238.1815745368254,445.4493398060821)" class="node">
<rect width="280" height="101" rx="8" fill="white" stroke="#e5e7eb" stroke-width="1" filter="url(#shadow)"/>
<rect x="1" y="8" width="3" height="85" rx="1" fill="#6b7280"/>
<rect x="12" y="12" width="90" height="18" rx="3" fill="#f3f4f6"/><text x="57" y="25" text-anchor="middle" fill="#1f2937" font-family="sans-serif" font-size="10" font-weight="600">Set Variables</text>
<text x="108" y="25" fill="#111827" font-family="sans-serif" font-size="12" font-weight="600">Reset plate</text>
<g transform="translate(12,38)"><path d="M3 4l4 3-4 3M11 4l-4 3 4 3" fill="none" stroke="#4b5563" stroke-width="1.5" stroke-linecap="round" stroke-linejoin="round"/></g>
<text x="32" y="49" fill="#6b7280" font-family="sans-serif" font-size="11">Setting 1 variable</text>
<line x1="12" y1="62" x2="268" y2="62" stroke="#e5e7eb" stroke-width="1"/>
<rect x="12" y="71" width="138" height="20" rx="4" fill="#f4f4f5"/><text x="81" y="85" text-anchor="middle" fill="#18181b" font-family="sans-serif" font-size="10" font-weight="500">license_plate (reset)</text>
</g>
<g transform="translate(196.92214529442066,2617.355577462489)" class="node">
<rect width="280" height="149" rx="8" fill="white" stroke="#e5e7eb" stroke-width="1" filter="url(#shadow)"/>
<rect x="1" y="8" width="3" height="133" rx="1" fill="#6b7280"/>
<rect x="12" y="12" width="90" height="18" rx="3" fill="#f3f4f6"/><text x="57" y="25" text-anchor="middle" fill="#1f2937" font-family="sans-serif" font-size="10" font-weight="600">Set Variables</text>
<text x="108" y="25" fill="#111827" font-family="sans-serif" font-size="12" font-weight="600">Reset edit</text>
<g transform="translate(12,38)"><path d="M3 4l4 3-4 3M11 4l-4 3 4 3" fill="none" stroke="#4b5563" stroke-width="1.5" stroke-linecap="round" stroke-linejoin="round"/></g>
<text x="32" y="49" fill="#6b7280" font-family="sans-serif" font-size="11">Setting 3 variables</text>
<line x1="12" y1="62" x2="268" y2="62" stroke="#e5e7eb" stroke-width="1"/>
<rect x="12" y="71" width="138" height="20" rx="4" fill="#f4f4f5"/><text x="81" y="85" text-anchor="middle" fill="#18181b" font-family="sans-serif" font-size="10" font-weight="500">license_plate (reset)</text>
<rect x="12" y="95" width="162" height="20" rx="4" fill="#f4f4f5"/><text x="93" y="109" text-anchor="middle" fill="#18181b" font-family="sans-serif" font-size="10" font-weight="500">vehicle_confirmed (reset)</text>
<rect x="12" y="119" width="150" height="20" rx="4" fill="#f4f4f5"/><text x="87" y="133" text-anchor="middle" fill="#18181b" font-family="sans-serif" font-size="10" font-weight="500">final_confirmed (reset)</text>
</g>
<g transform="translate(-153.48720208661163,484.28671225097696)" class="node">
<rect width="280" height="125" rx="8" fill="white" stroke="#e5e7eb" stroke-width="1" filter="url(#shadow)"/>
<rect x="1" y="8" width="3" height="109" rx="1" fill="#6b7280"/>
<rect x="12" y="12" width="90" height="18" rx="3" fill="#f3f4f6"/><text x="57" y="25" text-anchor="middle" fill="#1f2937" font-family="sans-serif" font-size="10" font-weight="600">Set Variables</text>
<text x="108" y="25" fill="#111827" font-family="sans-serif" font-size="12" font-weight="600">Reset vehicle</text>
<g transform="translate(12,38)"><path d="M3 4l4 3-4 3M11 4l-4 3 4 3" fill="none" stroke="#4b5563" stroke-width="1.5" stroke-linecap="round" stroke-linejoin="round"/></g>
<text x="32" y="49" fill="#6b7280" font-family="sans-serif" font-size="11">Setting 2 variables</text>
<line x1="12" y1="62" x2="268" y2="62" stroke="#e5e7eb" stroke-width="1"/>
<rect x="12" y="71" width="138" height="20" rx="4" fill="#f4f4f5"/><text x="81" y="85" text-anchor="middle" fill="#18181b" font-family="sans-serif" font-size="10" font-weight="500">license_plate (reset)</text>
<rect x="12" y="95" width="162" height="20" rx="4" fill="#f4f4f5"/><text x="93" y="109" text-anchor="middle" fill="#18181b" font-family="sans-serif" font-size="10" font-weight="500">vehicle_confirmed (reset)</text>
</g>
<foreignObject x="731.6506065846397" y="-906.001461913064" width="280" height="90">
  <div xmlns="http://www.w3.org/1999/xhtml" style="background:white;border:1px solid #d4d4d8;border-radius:10px;padding:16px 20px;font-family:system-ui,-apple-system,sans-serif;font-size:16px;box-shadow:0 2px 8px rgba(0,0,0,0.12);color:#374151">
    <div style="font-weight:700;margin-bottom:12px;font-size:14px;text-transform:uppercase;letter-spacing:0.6px;color:#6b7280">Filters</div>
    <label style="display:flex;align-items:center;gap:10px;cursor:pointer">
      <input type="checkbox" id="toggle-terminals" checked="checked" style="cursor:pointer;width:20px;height:20px;min-width:20px"/>
      <span>Terminal Nodes</span>
    </label>
  </div>
</foreignObject>
<script type="text/javascript"><![CDATA[
(function(){
  var t=document.getElementById('toggle-terminals');
  if(t) t.addEventListener('change',function(e){
    var show=e.target.checked;
    var ns=document.querySelectorAll('.terminal-node');
    var es=document.querySelectorAll('.terminal-edge');
    for(var i=0;i<ns.length;i++) ns[i].style.display=show?'':'none';
    for(var i=0;i<es.length;i++) es[i].style.display=show?'':'none';
  });
})();
]]></script>
</svg>